<svg xmlns="http://www.w3.org/2000/svg" version="1.1" xmlns:xlink="http://www.w3.org/1999/xlink" xmlns:svgjs="http://svgjs.dev/svgjs" width="1500" height="1500" viewBox="0 0 1500 1500"><rect width="1500" height="1500" fill="#ffffff"></rect><g transform="matrix(0.6666666666666666,0,0,0.6666666666666666,249.39393939393938,641.5977559748419)"><svg viewBox="0 0 396 86" data-background-color="#000000" preserveAspectRatio="xMidYMid meet" height="325" width="1500" xmlns="http://www.w3.org/2000/svg" xmlns:xlink="http://www.w3.org/1999/xlink"><g id="tight-bounds" transform="matrix(1,0,0,1,0.2400000000000091,0.027352243831956002)"><svg viewBox="0 0 395.52 85.94529551233607" height="85.94529551233607" width="395.52"><g><svg viewBox="0 0 530.4835339257104 115.2724617912458" height="85.94529551233607" width="395.52"><g transform="matrix(1,0,0,1,0,15.931288134680138)"><svg viewBox="0 0 395.52 83.40988552188553" height="83.40988552188553" width="395.52"><g id="textblocktransform"><svg viewBox="0 0 395.52 83.40988552188553" height="83.40988552188553" width="395.52" id="textblock"><g><svg viewBox="0 0 395.52 83.40988552188553" height="83.40988552188553" width="395.52"><g transform="matrix(1,0,0,1,0,0)"><svg width="395.52" viewBox="2.25 -35.99 217.51 45.88" height="83.40988552188553" data-palette-color="#ff7e1b"><path d="M11.65-25.95L11.65-25.95Q13.65-25.95 15.66-25.54 17.68-25.12 19.41-24.39L19.41-24.39Q19.07-23.61 18.7-22.85 18.33-22.09 17.9-21.36L17.9-21.36Q17.29-21.61 16.54-21.85 15.8-22.09 14.98-22.27 14.16-22.44 13.29-22.55 12.43-22.66 11.6-22.66L11.6-22.66Q10.69-22.66 9.85-22.47 9.01-22.29 8.36-21.88 7.71-21.46 7.32-20.79 6.93-20.12 6.93-19.12L6.93-19.12Q6.93-18.09 7.37-17.4 7.81-16.7 8.57-16.24 9.33-15.77 10.34-15.45 11.35-15.14 12.5-14.87L12.5-14.87Q14.28-14.43 15.82-13.88 17.36-13.33 18.48-12.45 19.6-11.57 20.24-10.28 20.87-8.98 20.87-7.08L20.87-7.08Q20.87-5.08 20.08-3.64 19.29-2.2 17.93-1.26 16.58-0.32 14.77 0.13 12.96 0.59 10.91 0.59L10.91 0.59Q9.84 0.59 8.7 0.45 7.57 0.32 6.46 0.06 5.35-0.2 4.27-0.56 3.2-0.93 2.25-1.37L2.25-1.37Q2.59-2.15 2.97-2.89 3.34-3.64 3.76-4.37L3.76-4.37Q4.57-4.03 5.47-3.72 6.37-3.42 7.32-3.2 8.28-2.98 9.2-2.84 10.13-2.71 10.99-2.71L10.99-2.71Q12.06-2.71 13.07-2.95 14.09-3.2 14.88-3.72 15.67-4.25 16.15-5.08 16.63-5.91 16.63-7.08L16.63-7.08Q16.63-8.18 16.17-8.89 15.72-9.59 14.97-10.07 14.21-10.55 13.2-10.85 12.18-11.16 11.06-11.43L11.06-11.43Q9.35-11.84 7.82-12.38 6.3-12.92 5.16-13.78 4.03-14.65 3.36-15.93 2.69-17.21 2.69-19.12L2.69-19.12Q2.69-20.9 3.42-22.19 4.15-23.49 5.38-24.32 6.62-25.15 8.24-25.55 9.86-25.95 11.65-25.95ZM29.66-25.39L29.66-31.2 33.86-31.2 33.86-25.39 42.4-25.39 42.4-21.85 33.86-21.85 33.86-7.28Q33.86-5.81 33.95-5.04 34.03-4.27 34.37-3.83L34.37-3.83Q35.01-2.95 36.94-2.95L36.94-2.95Q38.01-2.95 39.01-3.17L39.01-3.17Q40.04-3.39 40.89-3.66L40.89-3.66Q41.57-2.17 42.14-0.39L42.14-0.39Q39.26 0.59 36.33 0.59L36.33 0.59Q34.2 0.59 32.92 0.11 31.64-0.37 30.91-1.44L30.91-1.44Q30.15-2.56 29.9-4.13 29.66-5.69 29.66-8.45L29.66-8.45 29.66-21.85 26-21.85 26-25.39 29.66-25.39ZM52.78-19.51L53-19.51Q53.75-21.02 54.62-22.24 55.49-23.46 56.54-24.32L56.54-24.32Q57.49-25.15 58.64-25.55 59.79-25.95 61.25-25.95L61.25-25.95Q61.74-25.95 62.39-25.9 63.03-25.85 63.62-25.73L63.62-25.73Q63.52-24.51 63.39-23.44 63.25-22.36 63.03-21.26L63.03-21.26Q61.81-21.48 60.8-21.58 59.79-21.68 58.88-21.53L58.88-21.53Q57.81-21.34 57.01-20.81 56.22-20.29 55.55-19.42 54.88-18.55 54.24-17.35 53.61-16.14 52.85-14.58L52.85-14.58 52.85 0 48.65 0 48.65-15.65Q48.65-17.19 48.62-18.36 48.58-19.53 48.47-20.59 48.36-21.66 48.14-22.69 47.92-23.73 47.55-25L47.55-25Q48.58-25.27 49.57-25.49 50.56-25.71 51.58-25.9L51.58-25.9Q51.92-24.93 52.13-24.17 52.34-23.41 52.46-22.69 52.58-21.97 52.64-21.23 52.7-20.48 52.78-19.51L52.78-19.51ZM86.54-4.71L87.76-1.42Q85.05-0.34 82.67 0.12 80.29 0.59 78.41 0.59L78.41 0.59Q75.53 0.59 73.38-0.33 71.23-1.25 69.8-2.91 68.38-4.57 67.66-6.87 66.94-9.18 66.94-11.96L66.94-11.96Q66.94-13.67 67.18-15.38 67.42-17.09 67.96-18.64 68.5-20.19 69.37-21.53 70.23-22.88 71.48-23.85 72.72-24.83 74.38-25.39 76.04-25.95 78.17-25.95L78.17-25.95Q83.61-25.95 86.37-22.55 89.13-19.14 89.13-12.79L89.13-12.79 89.13-11.45 71.26-11.45Q71.26-9.4 71.7-7.82 72.14-6.25 73.05-5.16 73.97-4.08 75.37-3.52 76.77-2.95 78.7-2.95L78.7-2.95Q79.78-2.95 80.84-3.11 81.9-3.27 82.9-3.53 83.9-3.78 84.82-4.1 85.73-4.42 86.54-4.71L86.54-4.71ZM71.38-14.82L84.9-14.82Q84.71-18.77 83.01-20.59 81.32-22.41 78.17-22.41L78.17-22.41Q75.02-22.41 73.37-20.59 71.72-18.77 71.38-14.82L71.38-14.82ZM97.16-20.9L97.16-20.9 96.08-24.32Q100.19-25.95 104.68-25.95L104.68-25.95Q108.61-25.95 110.68-24.63L110.68-24.63Q113.05-23.12 113.05-19.48L113.05-19.48 113.05-9.5Q113.05-7.5 113.1-5.4L113.1-5.4Q113.12-4.15 113.34-2.81L113.34-2.81Q113.54-1.54 113.86-0.39L113.86-0.39 109.85 0.49Q109.29-1.15 109.15-3.17L109.15-3.17 108.66-3.22Q105.63 0.59 100.94 0.59L100.94 0.59Q97.52 0.59 95.45-1.31 93.37-3.2 93.37-6.64L93.37-6.64Q93.37-9.2 94.51-10.84 95.64-12.48 97.72-13.6L97.72-13.6Q100.99-15.38 106.87-15.38L106.87-15.38Q107.66-15.38 108.97-15.33L108.97-15.33 108.97-19.04Q108.97-20.8 107.9-21.58 106.83-22.36 104.53-22.36L104.53-22.36Q101.19-22.36 97.16-20.9ZM108.97-7.13L108.97-7.13 108.97-12.26Q108.32-12.3 107.05-12.3L107.05-12.3Q104.9-12.3 103.09-11.94L103.09-11.94Q100.41-11.4 98.93-10.24 97.45-9.08 97.45-6.91L97.45-6.91Q97.45-3 101.7-3L101.7-3Q103.9-3 105.8-4.17L105.8-4.17Q107.36-5.15 108.97-7.13ZM125.28 0L121.08 0 121.08-15.7Q121.08-19.46 120.91-21.36L120.91-21.36Q120.81-22.85 120.28-25L120.28-25 124.28-25.9Q124.74-24.44 124.94-23.07L124.94-23.07Q125.04-22.56 125.18-20.41L125.18-20.41 125.7-20.41Q126.94-22.9 128.82-24.32L128.82-24.32Q130.85-25.95 133.43-25.95L133.43-25.95Q134.9-25.95 136.27-25.43 137.63-24.9 138.56-23.95L138.56-23.95Q139.95-22.58 140.54-19.9L140.54-19.9 140.83-19.9Q142.3-22.73 144.27-24.24L144.27-24.24Q146.4-25.95 149.04-25.95L149.04-25.95Q152.23-25.95 153.94-24.17L153.94-24.17Q155.43-22.68 156.04-19.63L156.04-19.63Q156.48-17.41 156.48-13.43L156.48-13.43 156.48 0 152.28 0 152.28-14.6Q152.28-16.53 152.06-17.77L152.06-17.77Q151.72-19.7 150.84-20.78L150.84-20.78Q149.74-22.07 147.77-22.07L147.77-22.07Q145.52-22.07 143.62-19.92L143.62-19.92Q142.47-18.63 140.88-15.92L140.88-15.92Q140.93-15.5 140.93-14.7L140.93-14.7 140.93 0 136.73 0 136.73-14.6Q136.73-17.7 136.12-19.36L136.12-19.36Q135.09-22.07 132.24-22.07L132.24-22.07Q130.04-22.07 128.06-19.87L128.06-19.87Q126.92-18.6 125.28-15.65L125.28-15.65 125.28 0ZM166.05-35.23L166.05-35.23Q167.17-35.23 168-34.45L168-34.45Q168.81-33.59 168.81-32.45L168.81-32.45Q168.81-31.27 168-30.47L168-30.47Q167.17-29.64 166.05-29.64L166.05-29.64Q164.88-29.64 164.05-30.47L164.05-30.47Q163.22-31.25 163.22-32.45L163.22-32.45Q163.22-33.62 164.05-34.45L164.05-34.45Q164.88-35.23 166.05-35.23ZM163.9 0L163.9-25.39 168.1-25.39 168.1 0 163.9 0ZM175.25-25.39L179.5-25.39 179.5-28.15Q179.5-29.96 179.84-31.27 180.18-32.59 181.04-33.72 181.89-34.84 183.54-35.41 185.19-35.99 187.6-35.99L187.6-35.99Q190.75-35.99 195.1-34.94L195.1-34.94 194.34-31.49Q190.24-32.35 188.09-32.35L188.09-32.35Q187.04-32.35 186.32-32.24 185.6-32.13 185.11-31.8 184.63-31.47 184.36-31.1 184.09-30.74 183.95-30 183.82-29.27 183.78-28.61 183.75-27.95 183.75-26.78L183.75-26.78 183.75-25.39 191.9-25.39 191.9-21.85 183.75-21.85 183.75-3.54 191.9-3.54 191.9 0 175.25 0 175.25-3.54 179.5-3.54 179.5-21.85 175.25-21.85 175.25-25.39ZM215.56-25.39L219.76-25.39 219.76 0.56Q219.76 2.98 218.96 4.74 218.17 6.49 216.76 7.64 215.36 8.79 213.43 9.34 211.5 9.89 209.23 9.89L209.23 9.89Q207.18 9.89 205.11 9.53 203.03 9.18 201.15 8.54L201.15 8.54Q201.47 7.69 201.81 6.88 202.15 6.08 202.49 5.27L202.49 5.27Q203.08 5.47 203.9 5.69 204.72 5.91 205.63 6.09 206.55 6.27 207.51 6.38 208.48 6.49 209.38 6.49L209.38 6.49Q210.8 6.49 211.94 6.12 213.09 5.74 213.9 4.98 214.7 4.22 215.13 3.11 215.56 2 215.56 0.56L215.56 0.56 215.56-4.96 215.09-4.96Q214.46-3.81 213.63-2.8 212.8-1.78 211.8-1.03 210.8-0.27 209.64 0.16 208.48 0.59 207.18 0.59L207.18 0.59Q205.4 0.59 204.08 0.18 202.76-0.22 201.82-1.01 200.88-1.81 200.29-2.99 199.69-4.17 199.37-5.74L199.37-5.74Q199.1-7.13 199.03-8.72 198.95-10.3 198.95-11.99L198.95-11.99 198.95-25.39 203.15-25.39 203.15-10.82Q203.15-9.23 203.3-7.85 203.45-6.47 203.95-5.46 204.45-4.44 205.42-3.87 206.4-3.3 208.09-3.3L208.09-3.3Q209.33-3.3 210.43-3.89 211.53-4.49 212.46-5.42 213.38-6.35 214.15-7.47 214.92-8.59 215.56-9.67L215.56-9.67 215.56-25.39Z" opacity="1" transform="matrix(1,0,0,1,0,0)" fill="#000000" class="wordmark-text-0" data-fill-palette-color="primary" id="text-0"></path></svg></g></svg></g></svg></g></svg></g><g transform="matrix(1,0,0,1,415.21107213446464,0)"><svg viewBox="0 0 115.2724617912458 115.2724617912458" height="115.2724617912458" width="115.2724617912458"><g data-palette-color="#ff7e1b"><rect width="31.50780622294052" height="115.2724617912458" fill="#000000" stroke="transparent" data-fill-palette-color="accent" x="0" fill-opacity="1"></rect><rect width="31.50780622294052" height="115.2724617912458" fill="#000000" stroke="transparent" data-fill-palette-color="accent" x="38.424153930415265" fill-opacity="0.75"></rect><rect width="31.50780622294052" height="115.2724617912458" fill="#000000" stroke="transparent" data-fill-palette-color="accent" x="76.84830786083053" fill-opacity="0.5"></rect></g></svg></g></svg></g><defs></defs></svg><rect width="395.52" height="85.94529551233607" fill="none" stroke="none" visibility="hidden"></rect></g></svg></g></svg>